<?xml version="1.0" standalone="no"?>
<!DOCTYPE svg PUBLIC "-//W3C//DTD SVG 20010904//EN"
 "http://www.w3.org/TR/2001/REC-SVG-20010904/DTD/svg10.dtd">
<svg version="1.0" xmlns="http://www.w3.org/2000/svg"
 width="1360.000000pt" height="1360.000000pt" viewBox="0 0 1360.000000 1360.000000"
 preserveAspectRatio="xMidYMid meet">
<metadata>
Created by potrace 1.11, written by Peter Selinger 2001-2013
</metadata>
<g transform="translate(0.000000,1360.000000) scale(0.100000,-0.100000)"
fill="#000000" stroke="none">
<path d="M6369 11356 c-2 -2 -47 -7 -99 -10 -52 -3 -104 -8 -115 -10 -11 -2
-49 -7 -85 -11 -91 -9 -146 -17 -255 -37 -33 -6 -69 -12 -80 -14 -119 -19
-343 -76 -535 -137 -304 -95 -699 -282 -945 -447 -184 -123 -338 -251 -500
-414 -150 -151 -152 -153 -265 -296 -240 -302 -451 -689 -616 -1128 -69 -184
-152 -452 -170 -549 -2 -12 -9 -34 -14 -48 -5 -14 -8 -25 -5 -25 2 0 -2 -21
-10 -47 -15 -51 -24 -93 -30 -133 -1 -14 -6 -41 -10 -60 -4 -19 -8 -42 -10
-50 -1 -8 -5 -35 -9 -60 -11 -67 -24 -162 -41 -300 -5 -38 -14 -165 -21 -270
-6 -98 -6 -534 1 -625 8 -117 12 -172 20 -245 6 -61 8 -81 21 -190 7 -57 7
-55 -4 -120 -30 -161 -49 -254 -59 -280 -3 -8 -8 -23 -9 -32 -22 -112 -173
-409 -216 -426 -4 -2 -8 -8 -8 -14 0 -11 -18 -29 -45 -44 -18 -9 -369 -213
-405 -234 -114 -68 -151 -90 -154 -90 -3 0 -85 -47 -156 -90 -34 -20 -442
-258 -515 -300 -16 -10 -82 -48 -145 -85 -63 -37 -131 -77 -150 -87 -30 -18
-139 -82 -192 -113 -9 -5 -36 -21 -60 -33 -79 -43 -88 -62 -92 -172 -3 -71 4
-88 119 -284 100 -171 107 -179 197 -209 12 -4 59 18 130 60 200 117 200 117
209 102 63 -109 74 -122 130 -145 l57 -23 53 30 c30 16 61 34 69 39 36 22 802
469 930 542 280 161 506 294 508 300 2 5 8 8 13 8 6 0 49 23 97 52 48 28 95
51 104 50 30 -1 122 -69 184 -135 32 -35 98 -119 146 -188 144 -205 351 -436
524 -586 27 -23 60 -52 74 -64 14 -11 52 -42 85 -67 33 -25 62 -49 65 -52 3
-3 12 -9 21 -15 9 -5 52 -35 95 -65 160 -111 444 -269 649 -360 187 -84 467
-181 708 -245 60 -17 233 -54 272 -60 11 -2 58 -10 105 -19 47 -8 105 -18 130
-21 25 -3 63 -8 85 -11 22 -3 51 -7 65 -9 14 -2 54 -6 90 -9 36 -3 101 -9 145
-13 44 -4 314 -7 600 -7 454 -1 629 4 750 18 17 2 59 7 95 10 36 4 76 8 90 10
14 2 47 7 73 11 27 4 57 8 67 10 9 2 34 6 54 9 21 3 70 13 109 21 40 8 83 16
97 19 29 6 269 67 350 89 30 9 109 34 174 56 66 23 122 37 125 32 3 -5 6 -286
5 -625 l0 -616 40 -1 c119 -2 266 0 273 4 4 3 8 246 8 541 l-1 536 181 -4
c212 -6 198 -5 255 -17 25 -5 48 -8 51 -7 4 2 15 -4 25 -13 11 -9 29 -20 40
-23 45 -14 121 -101 163 -187 22 -46 42 -93 43 -104 2 -11 6 -24 10 -30 5 -9
31 -118 43 -183 2 -12 6 -25 8 -30 3 -4 8 -23 11 -42 3 -19 17 -80 32 -135 14
-55 32 -124 39 -153 7 -29 18 -58 23 -65 6 -7 11 -16 11 -22 1 -5 6 -23 12
-40 l11 -30 160 2 c88 1 162 3 164 5 2 3 -12 49 -31 104 -19 55 -36 113 -37
127 -1 15 -6 27 -10 27 -4 0 -7 3 -7 7 1 5 0 11 -1 16 -1 4 -3 15 -5 25 -1 9
-4 24 -8 32 -3 8 -8 29 -12 45 -3 17 -10 48 -15 70 -5 22 -12 50 -14 63 -3 13
-8 32 -11 42 -3 10 -7 27 -9 37 -2 10 -9 36 -15 58 -6 22 -12 51 -15 65 -2 14
-5 25 -6 25 -1 0 -3 10 -5 21 -3 12 -10 34 -16 50 -7 16 -12 32 -11 37 1 4 -3
7 -10 7 -6 0 -8 3 -5 6 4 4 -10 38 -31 77 -45 87 -140 184 -210 217 -28 14
-52 28 -52 31 0 4 30 21 68 38 90 43 107 53 149 90 19 17 38 31 41 32 10 0 92
106 92 118 0 6 4 11 8 11 10 0 37 50 34 63 -1 4 3 7 10 7 6 0 8 3 5 6 -3 4 -1
16 5 28 6 11 15 36 20 56 5 19 11 44 14 55 9 32 11 246 2 251 -5 3 -6 9 -4 13
3 4 -1 29 -9 54 -8 26 -12 47 -10 47 2 0 -10 27 -26 60 -16 33 -29 63 -29 67
0 4 24 57 54 118 83 169 140 305 129 305 -3 0 -1 6 4 13 9 10 24 59 25 77 0 3
4 13 9 22 5 9 12 34 15 55 3 21 8 41 10 44 2 3 6 20 9 37 3 18 12 65 21 105 8
39 17 85 19 100 2 15 7 47 12 70 11 67 7 1745 -5 1792 -24 94 -55 154 -114
220 -49 55 -47 54 -108 99 -45 35 -151 91 -192 104 -13 4 -741 8 -1618 8
-1353 1 -1598 -1 -1617 -12 -13 -8 -23 -12 -23 -8 0 4 -6 2 -12 -4 -7 -5 -35
-22 -63 -37 -126 -70 -236 -191 -264 -290 -7 -29 -7 -254 1 -289 4 -16 13 -53
19 -82 7 -30 16 -54 21 -54 4 0 8 -5 8 -11 0 -16 88 -100 140 -135 99 -66 33
-62 945 -63 l830 -2 50 -25 c138 -68 230 -167 319 -343 103 -204 99 -178 100
-615 2 -425 2 -420 -68 -571 -35 -75 -50 -95 -87 -120 -24 -16 -46 -33 -49
-36 -21 -23 -261 -162 -430 -247 -113 -57 -206 -104 -207 -103 -2 0 -24 -9
-50 -20 -224 -98 -544 -205 -723 -243 -98 -21 -184 -38 -240 -47 -36 -5 -76
-12 -90 -14 -122 -20 -278 -26 -365 -14 -33 4 -85 11 -115 15 -73 9 -84 11
-155 24 -76 14 -232 49 -265 60 -14 4 -45 13 -70 20 -25 7 -54 16 -65 20 -11
5 -45 16 -75 26 -151 47 -434 172 -587 260 -119 69 -340 229 -404 293 -9 9
-45 43 -80 77 -237 225 -455 560 -599 919 -41 104 -101 281 -115 341 -2 10
-13 53 -24 94 -22 82 -30 120 -37 165 -2 16 -7 38 -10 47 -3 10 -7 28 -9 40
-2 13 -9 57 -15 98 -6 41 -13 86 -15 99 -3 14 -7 54 -11 90 -3 36 -8 74 -10
86 -4 19 -8 81 -19 295 -12 223 -2 620 20 770 2 14 6 50 10 80 10 95 14 122
37 245 6 33 12 69 14 80 9 57 70 304 92 372 11 32 27 85 37 118 10 33 23 74
30 90 7 17 32 80 55 140 46 119 157 348 171 353 5 2 9 8 9 13 0 31 218 342
319 455 129 146 181 194 368 344 42 34 310 199 333 205 3 1 58 27 123 58 64
32 122 57 128 57 6 0 23 7 37 15 76 41 369 122 564 154 301 51 467 57 653 24
17 -3 44 -7 60 -9 88 -12 66 -8 237 -50 239 -58 499 -166 705 -290 43 -26 83
-52 88 -56 6 -5 42 -32 80 -60 87 -65 257 -233 316 -313 107 -146 206 -322
293 -517 22 -51 110 -151 178 -203 69 -54 204 -109 330 -135 106 -22 127 -19
309 39 17 5 50 1 105 -16 43 -13 95 -26 114 -28 19 -3 46 -7 60 -10 13 -2 108
18 210 46 102 28 192 53 200 55 76 18 171 45 195 54 17 7 37 13 45 15 8 2 69
22 135 45 153 53 317 107 470 155 66 20 136 43 155 50 19 7 37 13 40 12 3 0
66 19 140 42 74 23 187 58 250 77 182 56 210 67 210 81 0 7 -8 13 -18 13 -9 0
-48 18 -86 40 -37 22 -70 40 -72 40 -2 0 -64 35 -137 78 -72 44 -157 92 -187
108 -30 16 -57 31 -60 35 -3 3 -32 19 -65 35 -33 17 -94 48 -135 71 -41 22
-160 84 -265 138 -104 54 -194 101 -200 105 -10 7 -122 66 -370 196 -115 60
-521 264 -770 387 -77 38 -164 83 -240 124 -11 6 -65 39 -121 72 -56 34 -106
61 -112 61 -6 0 -12 3 -14 8 -4 10 -144 82 -268 137 -278 124 -606 224 -900
274 -140 24 -216 35 -320 46 -30 4 -73 9 -95 12 -44 6 -1320 15 -1326 9z
m3865 -7798 c-1 -35 -5 -76 -9 -93 -4 -16 -8 -34 -9 -40 -1 -5 -14 -35 -28
-66 -54 -115 -190 -215 -333 -244 -16 -4 -36 -7 -42 -7 -7 -1 -13 -6 -13 -11
0 -5 -6 -4 -13 2 -8 6 -17 8 -21 4 -7 -7 -382 -12 -402 -6 -6 2 -10 15 -10 29
1 19 11 30 36 41 113 50 352 169 454 226 66 37 123 67 128 67 4 0 8 3 8 8 0 4
29 23 65 41 36 19 65 39 65 43 0 4 6 8 13 8 6 1 30 14 52 30 22 16 45 29 50
30 7 0 10 -24 9 -62z"/>
<path d="M9428 8698 c6 -6 18 -8 28 -6 14 3 12 5 -9 10 -19 3 -25 2 -19 -4z"/>
<path d="M9945 8700 c-3 -5 1 -10 10 -10 9 0 13 5 10 10 -3 6 -8 10 -10 10 -2
0 -7 -4 -10 -10z"/>
<path d="M9150 8620 c0 -5 5 -10 11 -10 5 0 7 5 4 10 -3 6 -8 10 -11 10 -2 0
-4 -4 -4 -10z"/>
<path d="M9660 8620 c0 -5 5 -10 11 -10 5 0 7 5 4 10 -3 6 -8 10 -11 10 -2 0
-4 -4 -4 -10z"/>
<path d="M11864 4300 c-5 -4 -25 -10 -44 -13 -66 -10 -105 -20 -119 -31 -12
-9 -13 -8 -6 4 7 12 6 13 -6 4 -8 -6 -38 -19 -66 -28 -29 -10 -53 -21 -53 -25
0 -4 -9 -7 -20 -8 -26 -2 -161 -83 -223 -133 -39 -32 -169 -160 -162 -160 3 0
-6 -12 -20 -27 -14 -15 -25 -31 -25 -35 0 -3 -7 -13 -14 -21 -38 -38 -141
-247 -161 -327 -2 -8 -8 -27 -13 -41 -6 -14 -13 -41 -16 -60 -3 -19 -8 -45
-11 -59 -11 -48 -14 -65 -19 -102 -2 -21 -7 -42 -11 -48 -3 -5 -1 -10 5 -10 7
0 8 -6 1 -18 -10 -19 -8 -346 2 -392 3 -14 9 -43 12 -65 5 -39 32 -160 35
-160 1 0 3 -7 5 -15 13 -60 122 -304 143 -320 4 -3 22 -27 41 -55 65 -96 278
-285 320 -285 6 0 11 -3 11 -8 0 -6 68 -41 93 -48 4 -1 10 -3 15 -4 4 -1 10
-2 15 -1 4 0 7 -3 7 -7 0 -8 98 -38 113 -34 4 1 7 -2 7 -7 0 -5 11 -8 25 -6
14 1 25 -1 25 -4 0 -4 8 -7 18 -7 9 0 40 -4 67 -8 66 -10 297 -9 304 1 3 4 22
9 41 9 19 1 46 4 60 7 14 3 34 8 45 10 76 18 257 92 263 109 2 4 10 8 18 8 8
0 23 9 34 20 11 11 20 17 20 14 0 -18 179 148 235 217 35 43 65 88 65 95 0 4
7 15 15 24 20 22 85 156 85 175 0 8 5 15 10 15 6 0 9 3 8 8 -1 4 9 41 22 82
13 41 25 83 26 93 1 9 2 18 4 20 3 4 11 43 16 86 3 24 9 54 13 65 9 25 6 443
-3 501 -10 62 -23 120 -26 120 -1 0 -3 9 -5 20 -7 42 -36 140 -46 149 -5 6 -9
16 -9 23 0 26 -72 165 -127 246 -62 92 -177 209 -262 266 -69 47 -151 93 -151
85 0 -4 -6 -1 -14 5 -19 16 -123 51 -130 44 -3 -4 -6 -2 -6 3 0 10 -114 34
-173 37 -15 1 -27 4 -27 7 0 3 -53 7 -117 8 -79 1 -113 -2 -103 -8 19 -12 8
-13 -23 -1 -13 5 -28 6 -33 1z m289 -273 c15 -1 27 -5 27 -9 0 -5 9 -8 20 -8
12 0 51 -14 88 -31 37 -18 69 -32 72 -32 19 1 186 -156 220 -207 8 -12 22 -32
31 -44 22 -29 99 -191 99 -208 0 -8 4 -18 9 -23 6 -6 13 -23 16 -40 8 -40 13
-60 15 -60 1 0 3 -9 5 -20 2 -11 6 -31 9 -45 15 -61 20 -125 20 -275 1 -160
-6 -242 -23 -302 -5 -18 -8 -33 -5 -33 3 0 0 -8 -5 -19 -6 -10 -13 -32 -16
-49 -3 -17 -10 -44 -17 -59 -6 -15 -12 -32 -12 -38 -1 -11 -78 -167 -86 -175
-3 -3 -20 -27 -39 -55 -40 -58 -111 -131 -161 -165 -19 -13 -37 -27 -40 -30
-3 -3 -18 -12 -35 -20 -16 -8 -32 -17 -35 -20 -15 -15 -151 -53 -192 -54 -26
-1 -48 -4 -48 -8 0 -7 -161 -3 -200 6 -14 3 -38 9 -55 12 -16 3 -34 10 -40 14
-5 4 -23 10 -40 14 -16 4 -38 15 -47 23 -10 9 -18 13 -18 9 0 -4 -28 12 -61
36 -122 85 -249 249 -300 388 -11 30 -22 62 -26 70 -9 23 -15 43 -16 63 -1 9
-4 17 -7 17 -6 0 -28 113 -37 187 -12 108 -7 304 11 418 8 50 31 152 37 165 1
3 3 10 3 15 1 6 8 21 16 35 7 14 12 25 10 25 -5 0 22 79 29 85 4 3 15 24 25
48 11 23 23 42 28 42 4 0 8 5 8 11 0 34 158 209 217 240 15 8 30 17 33 21 12
16 150 67 215 81 61 12 172 14 298 4z"/>
</g>
</svg>
